<mxfile host="Electron" agent="Mozilla/5.0 (X11; Linux x86_64) AppleWebKit/537.36 (KHTML, like Gecko) draw.io/26.0.9 Chrome/128.0.6613.186 Electron/32.3.0 Safari/537.36" version="26.0.9">
  <diagram name="Page-1" id="D5jY0ucAh5KUItsqW_TA">
    <mxGraphModel dx="4965" dy="3590" grid="1" gridSize="10" guides="1" tooltips="1" connect="1" arrows="1" fold="1" page="1" pageScale="1" pageWidth="1200" pageHeight="1920" math="0" shadow="0">
      <root>
        <mxCell id="0" />
        <mxCell id="1" parent="0" />
        <mxCell id="s5sCX5NFxafLSbKD_-51-13" value="" style="group" parent="1" vertex="1" connectable="0">
          <mxGeometry x="320" y="440" width="240" height="100" as="geometry" />
        </mxCell>
        <mxCell id="95CmSrwEK4jBnhM7cNss-198" style="edgeStyle=orthogonalEdgeStyle;rounded=0;orthogonalLoop=1;jettySize=auto;html=1;" edge="1" parent="s5sCX5NFxafLSbKD_-51-13" source="s5sCX5NFxafLSbKD_-51-4">
          <mxGeometry relative="1" as="geometry">
            <mxPoint x="3160" y="770" as="targetPoint" />
            <Array as="points">
              <mxPoint x="2800" y="70" />
              <mxPoint x="2800" y="770" />
              <mxPoint x="3160" y="770" />
            </Array>
          </mxGeometry>
        </mxCell>
        <mxCell id="s5sCX5NFxafLSbKD_-51-4" value="Bit" style="rounded=1;whiteSpace=wrap;html=1;" parent="s5sCX5NFxafLSbKD_-51-13" vertex="1">
          <mxGeometry x="60" y="40" width="120" height="60" as="geometry" />
        </mxCell>
        <mxCell id="s5sCX5NFxafLSbKD_-51-5" value="" style="endArrow=classic;html=1;rounded=0;entryX=0;entryY=0.5;entryDx=0;entryDy=0;" parent="s5sCX5NFxafLSbKD_-51-13" target="s5sCX5NFxafLSbKD_-51-4" edge="1">
          <mxGeometry width="50" height="50" relative="1" as="geometry">
            <mxPoint y="70" as="sourcePoint" />
            <mxPoint x="20" y="60" as="targetPoint" />
          </mxGeometry>
        </mxCell>
        <mxCell id="s5sCX5NFxafLSbKD_-51-6" value="in" style="edgeLabel;html=1;align=center;verticalAlign=middle;resizable=0;points=[];fontSize=9;" parent="s5sCX5NFxafLSbKD_-51-5" vertex="1" connectable="0">
          <mxGeometry x="-0.1967" y="-1" relative="1" as="geometry">
            <mxPoint as="offset" />
          </mxGeometry>
        </mxCell>
        <mxCell id="s5sCX5NFxafLSbKD_-51-7" value="" style="endArrow=classic;html=1;rounded=0;" parent="s5sCX5NFxafLSbKD_-51-13" edge="1">
          <mxGeometry width="50" height="50" relative="1" as="geometry">
            <mxPoint x="180" y="69.80000000000001" as="sourcePoint" />
            <mxPoint x="240" y="70" as="targetPoint" />
          </mxGeometry>
        </mxCell>
        <mxCell id="s5sCX5NFxafLSbKD_-51-8" value="out" style="edgeLabel;html=1;align=center;verticalAlign=middle;resizable=0;points=[];fontSize=9;" parent="s5sCX5NFxafLSbKD_-51-7" vertex="1" connectable="0">
          <mxGeometry x="-0.1967" y="-1" relative="1" as="geometry">
            <mxPoint as="offset" />
          </mxGeometry>
        </mxCell>
        <mxCell id="s5sCX5NFxafLSbKD_-51-9" value="" style="triangle;whiteSpace=wrap;html=1;direction=north;" parent="s5sCX5NFxafLSbKD_-51-13" vertex="1">
          <mxGeometry x="110" y="80" width="20" height="20" as="geometry" />
        </mxCell>
        <mxCell id="s5sCX5NFxafLSbKD_-51-10" value="" style="endArrow=classic;html=1;rounded=0;entryX=0;entryY=0.5;entryDx=0;entryDy=0;" parent="s5sCX5NFxafLSbKD_-51-13" edge="1">
          <mxGeometry width="50" height="50" relative="1" as="geometry">
            <mxPoint x="120" as="sourcePoint" />
            <mxPoint x="120" y="40" as="targetPoint" />
          </mxGeometry>
        </mxCell>
        <mxCell id="s5sCX5NFxafLSbKD_-51-11" value="load" style="edgeLabel;html=1;align=center;verticalAlign=middle;resizable=0;points=[];fontSize=9;" parent="s5sCX5NFxafLSbKD_-51-10" vertex="1" connectable="0">
          <mxGeometry x="-0.1967" y="-1" relative="1" as="geometry">
            <mxPoint as="offset" />
          </mxGeometry>
        </mxCell>
        <mxCell id="95CmSrwEK4jBnhM7cNss-1" value="" style="endArrow=classic;html=1;rounded=0;" edge="1" parent="1">
          <mxGeometry width="50" height="50" relative="1" as="geometry">
            <mxPoint x="40" y="1189.41" as="sourcePoint" />
            <mxPoint x="120" y="1189.41" as="targetPoint" />
          </mxGeometry>
        </mxCell>
        <mxCell id="95CmSrwEK4jBnhM7cNss-2" value="in(16)" style="edgeLabel;html=1;align=center;verticalAlign=middle;resizable=0;points=[];fontSize=15;" vertex="1" connectable="0" parent="95CmSrwEK4jBnhM7cNss-1">
          <mxGeometry x="-0.0362" relative="1" as="geometry">
            <mxPoint as="offset" />
          </mxGeometry>
        </mxCell>
        <mxCell id="95CmSrwEK4jBnhM7cNss-3" value="" style="endArrow=classic;html=1;rounded=0;" edge="1" parent="1">
          <mxGeometry width="50" height="50" relative="1" as="geometry">
            <mxPoint x="3480" y="1209.17" as="sourcePoint" />
            <mxPoint x="3560" y="1209.17" as="targetPoint" />
          </mxGeometry>
        </mxCell>
        <mxCell id="95CmSrwEK4jBnhM7cNss-4" value="out(16)" style="edgeLabel;html=1;align=center;verticalAlign=middle;resizable=0;points=[];fontSize=15;" vertex="1" connectable="0" parent="95CmSrwEK4jBnhM7cNss-3">
          <mxGeometry x="-0.0362" relative="1" as="geometry">
            <mxPoint as="offset" />
          </mxGeometry>
        </mxCell>
        <mxCell id="95CmSrwEK4jBnhM7cNss-5" value="" style="group" vertex="1" connectable="0" parent="1">
          <mxGeometry x="480" y="540" width="240" height="100" as="geometry" />
        </mxCell>
        <mxCell id="95CmSrwEK4jBnhM7cNss-197" style="edgeStyle=orthogonalEdgeStyle;rounded=0;orthogonalLoop=1;jettySize=auto;html=1;" edge="1" parent="95CmSrwEK4jBnhM7cNss-5" source="95CmSrwEK4jBnhM7cNss-6">
          <mxGeometry relative="1" as="geometry">
            <mxPoint x="3000" y="670" as="targetPoint" />
            <Array as="points">
              <mxPoint x="2560" y="70" />
              <mxPoint x="2560" y="670" />
              <mxPoint x="3000" y="670" />
            </Array>
          </mxGeometry>
        </mxCell>
        <mxCell id="95CmSrwEK4jBnhM7cNss-6" value="Bit" style="rounded=1;whiteSpace=wrap;html=1;" vertex="1" parent="95CmSrwEK4jBnhM7cNss-5">
          <mxGeometry x="60" y="40" width="120" height="60" as="geometry" />
        </mxCell>
        <mxCell id="95CmSrwEK4jBnhM7cNss-7" value="" style="endArrow=classic;html=1;rounded=0;entryX=0;entryY=0.5;entryDx=0;entryDy=0;" edge="1" parent="95CmSrwEK4jBnhM7cNss-5" target="95CmSrwEK4jBnhM7cNss-6">
          <mxGeometry width="50" height="50" relative="1" as="geometry">
            <mxPoint y="70" as="sourcePoint" />
            <mxPoint x="20" y="60" as="targetPoint" />
          </mxGeometry>
        </mxCell>
        <mxCell id="95CmSrwEK4jBnhM7cNss-8" value="in" style="edgeLabel;html=1;align=center;verticalAlign=middle;resizable=0;points=[];fontSize=9;" vertex="1" connectable="0" parent="95CmSrwEK4jBnhM7cNss-7">
          <mxGeometry x="-0.1967" y="-1" relative="1" as="geometry">
            <mxPoint as="offset" />
          </mxGeometry>
        </mxCell>
        <mxCell id="95CmSrwEK4jBnhM7cNss-9" value="" style="endArrow=classic;html=1;rounded=0;" edge="1" parent="95CmSrwEK4jBnhM7cNss-5">
          <mxGeometry width="50" height="50" relative="1" as="geometry">
            <mxPoint x="180" y="69.80000000000001" as="sourcePoint" />
            <mxPoint x="240" y="70" as="targetPoint" />
          </mxGeometry>
        </mxCell>
        <mxCell id="95CmSrwEK4jBnhM7cNss-10" value="out" style="edgeLabel;html=1;align=center;verticalAlign=middle;resizable=0;points=[];fontSize=9;" vertex="1" connectable="0" parent="95CmSrwEK4jBnhM7cNss-9">
          <mxGeometry x="-0.1967" y="-1" relative="1" as="geometry">
            <mxPoint as="offset" />
          </mxGeometry>
        </mxCell>
        <mxCell id="95CmSrwEK4jBnhM7cNss-11" value="" style="triangle;whiteSpace=wrap;html=1;direction=north;" vertex="1" parent="95CmSrwEK4jBnhM7cNss-5">
          <mxGeometry x="110" y="80" width="20" height="20" as="geometry" />
        </mxCell>
        <mxCell id="95CmSrwEK4jBnhM7cNss-12" value="" style="endArrow=classic;html=1;rounded=0;entryX=0;entryY=0.5;entryDx=0;entryDy=0;" edge="1" parent="95CmSrwEK4jBnhM7cNss-5">
          <mxGeometry width="50" height="50" relative="1" as="geometry">
            <mxPoint x="120" as="sourcePoint" />
            <mxPoint x="120" y="40" as="targetPoint" />
          </mxGeometry>
        </mxCell>
        <mxCell id="95CmSrwEK4jBnhM7cNss-13" value="load" style="edgeLabel;html=1;align=center;verticalAlign=middle;resizable=0;points=[];fontSize=9;" vertex="1" connectable="0" parent="95CmSrwEK4jBnhM7cNss-12">
          <mxGeometry x="-0.1967" y="-1" relative="1" as="geometry">
            <mxPoint as="offset" />
          </mxGeometry>
        </mxCell>
        <mxCell id="95CmSrwEK4jBnhM7cNss-14" value="" style="group" vertex="1" connectable="0" parent="1">
          <mxGeometry x="640" y="640" width="240" height="100" as="geometry" />
        </mxCell>
        <mxCell id="95CmSrwEK4jBnhM7cNss-196" style="edgeStyle=orthogonalEdgeStyle;rounded=0;orthogonalLoop=1;jettySize=auto;html=1;" edge="1" parent="95CmSrwEK4jBnhM7cNss-14" source="95CmSrwEK4jBnhM7cNss-15">
          <mxGeometry relative="1" as="geometry">
            <mxPoint x="2840" y="570" as="targetPoint" />
            <Array as="points">
              <mxPoint x="2320" y="70" />
              <mxPoint x="2320" y="570" />
            </Array>
          </mxGeometry>
        </mxCell>
        <mxCell id="95CmSrwEK4jBnhM7cNss-15" value="Bit" style="rounded=1;whiteSpace=wrap;html=1;" vertex="1" parent="95CmSrwEK4jBnhM7cNss-14">
          <mxGeometry x="60" y="40" width="120" height="60" as="geometry" />
        </mxCell>
        <mxCell id="95CmSrwEK4jBnhM7cNss-16" value="" style="endArrow=classic;html=1;rounded=0;entryX=0;entryY=0.5;entryDx=0;entryDy=0;" edge="1" parent="95CmSrwEK4jBnhM7cNss-14" target="95CmSrwEK4jBnhM7cNss-15">
          <mxGeometry width="50" height="50" relative="1" as="geometry">
            <mxPoint y="70" as="sourcePoint" />
            <mxPoint x="20" y="60" as="targetPoint" />
          </mxGeometry>
        </mxCell>
        <mxCell id="95CmSrwEK4jBnhM7cNss-17" value="in" style="edgeLabel;html=1;align=center;verticalAlign=middle;resizable=0;points=[];fontSize=9;" vertex="1" connectable="0" parent="95CmSrwEK4jBnhM7cNss-16">
          <mxGeometry x="-0.1967" y="-1" relative="1" as="geometry">
            <mxPoint as="offset" />
          </mxGeometry>
        </mxCell>
        <mxCell id="95CmSrwEK4jBnhM7cNss-18" value="" style="endArrow=classic;html=1;rounded=0;" edge="1" parent="95CmSrwEK4jBnhM7cNss-14">
          <mxGeometry width="50" height="50" relative="1" as="geometry">
            <mxPoint x="180" y="69.80000000000001" as="sourcePoint" />
            <mxPoint x="240" y="70" as="targetPoint" />
          </mxGeometry>
        </mxCell>
        <mxCell id="95CmSrwEK4jBnhM7cNss-19" value="out" style="edgeLabel;html=1;align=center;verticalAlign=middle;resizable=0;points=[];fontSize=9;" vertex="1" connectable="0" parent="95CmSrwEK4jBnhM7cNss-18">
          <mxGeometry x="-0.1967" y="-1" relative="1" as="geometry">
            <mxPoint as="offset" />
          </mxGeometry>
        </mxCell>
        <mxCell id="95CmSrwEK4jBnhM7cNss-20" value="" style="triangle;whiteSpace=wrap;html=1;direction=north;" vertex="1" parent="95CmSrwEK4jBnhM7cNss-14">
          <mxGeometry x="110" y="80" width="20" height="20" as="geometry" />
        </mxCell>
        <mxCell id="95CmSrwEK4jBnhM7cNss-21" value="" style="endArrow=classic;html=1;rounded=0;entryX=0;entryY=0.5;entryDx=0;entryDy=0;" edge="1" parent="95CmSrwEK4jBnhM7cNss-14">
          <mxGeometry width="50" height="50" relative="1" as="geometry">
            <mxPoint x="120" as="sourcePoint" />
            <mxPoint x="120" y="40" as="targetPoint" />
          </mxGeometry>
        </mxCell>
        <mxCell id="95CmSrwEK4jBnhM7cNss-22" value="load" style="edgeLabel;html=1;align=center;verticalAlign=middle;resizable=0;points=[];fontSize=9;" vertex="1" connectable="0" parent="95CmSrwEK4jBnhM7cNss-21">
          <mxGeometry x="-0.1967" y="-1" relative="1" as="geometry">
            <mxPoint as="offset" />
          </mxGeometry>
        </mxCell>
        <mxCell id="95CmSrwEK4jBnhM7cNss-23" value="" style="group" vertex="1" connectable="0" parent="1">
          <mxGeometry x="800" y="740" width="240" height="100" as="geometry" />
        </mxCell>
        <mxCell id="95CmSrwEK4jBnhM7cNss-192" style="edgeStyle=orthogonalEdgeStyle;rounded=0;orthogonalLoop=1;jettySize=auto;html=1;" edge="1" parent="95CmSrwEK4jBnhM7cNss-23" source="95CmSrwEK4jBnhM7cNss-24">
          <mxGeometry relative="1" as="geometry">
            <mxPoint x="2680" y="470" as="targetPoint" />
            <Array as="points">
              <mxPoint x="2080" y="70" />
              <mxPoint x="2080" y="470" />
            </Array>
          </mxGeometry>
        </mxCell>
        <mxCell id="95CmSrwEK4jBnhM7cNss-24" value="Bit" style="rounded=1;whiteSpace=wrap;html=1;" vertex="1" parent="95CmSrwEK4jBnhM7cNss-23">
          <mxGeometry x="60" y="40" width="120" height="60" as="geometry" />
        </mxCell>
        <mxCell id="95CmSrwEK4jBnhM7cNss-25" value="" style="endArrow=classic;html=1;rounded=0;entryX=0;entryY=0.5;entryDx=0;entryDy=0;" edge="1" parent="95CmSrwEK4jBnhM7cNss-23" target="95CmSrwEK4jBnhM7cNss-24">
          <mxGeometry width="50" height="50" relative="1" as="geometry">
            <mxPoint y="70" as="sourcePoint" />
            <mxPoint x="20" y="60" as="targetPoint" />
          </mxGeometry>
        </mxCell>
        <mxCell id="95CmSrwEK4jBnhM7cNss-26" value="in" style="edgeLabel;html=1;align=center;verticalAlign=middle;resizable=0;points=[];fontSize=9;" vertex="1" connectable="0" parent="95CmSrwEK4jBnhM7cNss-25">
          <mxGeometry x="-0.1967" y="-1" relative="1" as="geometry">
            <mxPoint as="offset" />
          </mxGeometry>
        </mxCell>
        <mxCell id="95CmSrwEK4jBnhM7cNss-27" value="" style="endArrow=classic;html=1;rounded=0;" edge="1" parent="95CmSrwEK4jBnhM7cNss-23">
          <mxGeometry width="50" height="50" relative="1" as="geometry">
            <mxPoint x="180" y="69.80000000000001" as="sourcePoint" />
            <mxPoint x="240" y="70" as="targetPoint" />
          </mxGeometry>
        </mxCell>
        <mxCell id="95CmSrwEK4jBnhM7cNss-28" value="out" style="edgeLabel;html=1;align=center;verticalAlign=middle;resizable=0;points=[];fontSize=9;" vertex="1" connectable="0" parent="95CmSrwEK4jBnhM7cNss-27">
          <mxGeometry x="-0.1967" y="-1" relative="1" as="geometry">
            <mxPoint as="offset" />
          </mxGeometry>
        </mxCell>
        <mxCell id="95CmSrwEK4jBnhM7cNss-29" value="" style="triangle;whiteSpace=wrap;html=1;direction=north;" vertex="1" parent="95CmSrwEK4jBnhM7cNss-23">
          <mxGeometry x="110" y="80" width="20" height="20" as="geometry" />
        </mxCell>
        <mxCell id="95CmSrwEK4jBnhM7cNss-30" value="" style="endArrow=classic;html=1;rounded=0;entryX=0;entryY=0.5;entryDx=0;entryDy=0;" edge="1" parent="95CmSrwEK4jBnhM7cNss-23">
          <mxGeometry width="50" height="50" relative="1" as="geometry">
            <mxPoint x="120" as="sourcePoint" />
            <mxPoint x="120" y="40" as="targetPoint" />
          </mxGeometry>
        </mxCell>
        <mxCell id="95CmSrwEK4jBnhM7cNss-31" value="load" style="edgeLabel;html=1;align=center;verticalAlign=middle;resizable=0;points=[];fontSize=9;" vertex="1" connectable="0" parent="95CmSrwEK4jBnhM7cNss-30">
          <mxGeometry x="-0.1967" y="-1" relative="1" as="geometry">
            <mxPoint as="offset" />
          </mxGeometry>
        </mxCell>
        <mxCell id="95CmSrwEK4jBnhM7cNss-32" value="" style="group" vertex="1" connectable="0" parent="1">
          <mxGeometry x="960" y="840" width="240" height="100" as="geometry" />
        </mxCell>
        <mxCell id="95CmSrwEK4jBnhM7cNss-191" style="edgeStyle=orthogonalEdgeStyle;rounded=0;orthogonalLoop=1;jettySize=auto;html=1;" edge="1" parent="95CmSrwEK4jBnhM7cNss-32" source="95CmSrwEK4jBnhM7cNss-33">
          <mxGeometry relative="1" as="geometry">
            <mxPoint x="2520" y="370" as="targetPoint" />
            <Array as="points">
              <mxPoint x="1840" y="70" />
              <mxPoint x="1840" y="370" />
            </Array>
          </mxGeometry>
        </mxCell>
        <mxCell id="95CmSrwEK4jBnhM7cNss-33" value="Bit" style="rounded=1;whiteSpace=wrap;html=1;" vertex="1" parent="95CmSrwEK4jBnhM7cNss-32">
          <mxGeometry x="60" y="40" width="120" height="60" as="geometry" />
        </mxCell>
        <mxCell id="95CmSrwEK4jBnhM7cNss-34" value="" style="endArrow=classic;html=1;rounded=0;entryX=0;entryY=0.5;entryDx=0;entryDy=0;" edge="1" parent="95CmSrwEK4jBnhM7cNss-32" target="95CmSrwEK4jBnhM7cNss-33">
          <mxGeometry width="50" height="50" relative="1" as="geometry">
            <mxPoint y="70" as="sourcePoint" />
            <mxPoint x="20" y="60" as="targetPoint" />
          </mxGeometry>
        </mxCell>
        <mxCell id="95CmSrwEK4jBnhM7cNss-35" value="in" style="edgeLabel;html=1;align=center;verticalAlign=middle;resizable=0;points=[];fontSize=9;" vertex="1" connectable="0" parent="95CmSrwEK4jBnhM7cNss-34">
          <mxGeometry x="-0.1967" y="-1" relative="1" as="geometry">
            <mxPoint as="offset" />
          </mxGeometry>
        </mxCell>
        <mxCell id="95CmSrwEK4jBnhM7cNss-36" value="" style="endArrow=classic;html=1;rounded=0;" edge="1" parent="95CmSrwEK4jBnhM7cNss-32">
          <mxGeometry width="50" height="50" relative="1" as="geometry">
            <mxPoint x="180" y="69.80000000000001" as="sourcePoint" />
            <mxPoint x="240" y="70" as="targetPoint" />
          </mxGeometry>
        </mxCell>
        <mxCell id="95CmSrwEK4jBnhM7cNss-37" value="out" style="edgeLabel;html=1;align=center;verticalAlign=middle;resizable=0;points=[];fontSize=9;" vertex="1" connectable="0" parent="95CmSrwEK4jBnhM7cNss-36">
          <mxGeometry x="-0.1967" y="-1" relative="1" as="geometry">
            <mxPoint as="offset" />
          </mxGeometry>
        </mxCell>
        <mxCell id="95CmSrwEK4jBnhM7cNss-38" value="" style="triangle;whiteSpace=wrap;html=1;direction=north;" vertex="1" parent="95CmSrwEK4jBnhM7cNss-32">
          <mxGeometry x="110" y="80" width="20" height="20" as="geometry" />
        </mxCell>
        <mxCell id="95CmSrwEK4jBnhM7cNss-39" value="" style="endArrow=classic;html=1;rounded=0;entryX=0;entryY=0.5;entryDx=0;entryDy=0;" edge="1" parent="95CmSrwEK4jBnhM7cNss-32">
          <mxGeometry width="50" height="50" relative="1" as="geometry">
            <mxPoint x="120" as="sourcePoint" />
            <mxPoint x="120" y="40" as="targetPoint" />
          </mxGeometry>
        </mxCell>
        <mxCell id="95CmSrwEK4jBnhM7cNss-40" value="load" style="edgeLabel;html=1;align=center;verticalAlign=middle;resizable=0;points=[];fontSize=9;" vertex="1" connectable="0" parent="95CmSrwEK4jBnhM7cNss-39">
          <mxGeometry x="-0.1967" y="-1" relative="1" as="geometry">
            <mxPoint as="offset" />
          </mxGeometry>
        </mxCell>
        <mxCell id="95CmSrwEK4jBnhM7cNss-41" value="" style="group" vertex="1" connectable="0" parent="1">
          <mxGeometry x="1120" y="940" width="240" height="100" as="geometry" />
        </mxCell>
        <mxCell id="95CmSrwEK4jBnhM7cNss-190" style="edgeStyle=orthogonalEdgeStyle;rounded=0;orthogonalLoop=1;jettySize=auto;html=1;" edge="1" parent="95CmSrwEK4jBnhM7cNss-41" source="95CmSrwEK4jBnhM7cNss-42">
          <mxGeometry relative="1" as="geometry">
            <mxPoint x="2360" y="270" as="targetPoint" />
            <Array as="points">
              <mxPoint x="1600" y="70" />
              <mxPoint x="1600" y="270" />
            </Array>
          </mxGeometry>
        </mxCell>
        <mxCell id="95CmSrwEK4jBnhM7cNss-42" value="Bit" style="rounded=1;whiteSpace=wrap;html=1;" vertex="1" parent="95CmSrwEK4jBnhM7cNss-41">
          <mxGeometry x="60" y="40" width="120" height="60" as="geometry" />
        </mxCell>
        <mxCell id="95CmSrwEK4jBnhM7cNss-43" value="" style="endArrow=classic;html=1;rounded=0;entryX=0;entryY=0.5;entryDx=0;entryDy=0;" edge="1" parent="95CmSrwEK4jBnhM7cNss-41" target="95CmSrwEK4jBnhM7cNss-42">
          <mxGeometry width="50" height="50" relative="1" as="geometry">
            <mxPoint y="70" as="sourcePoint" />
            <mxPoint x="20" y="60" as="targetPoint" />
          </mxGeometry>
        </mxCell>
        <mxCell id="95CmSrwEK4jBnhM7cNss-44" value="in" style="edgeLabel;html=1;align=center;verticalAlign=middle;resizable=0;points=[];fontSize=9;" vertex="1" connectable="0" parent="95CmSrwEK4jBnhM7cNss-43">
          <mxGeometry x="-0.1967" y="-1" relative="1" as="geometry">
            <mxPoint as="offset" />
          </mxGeometry>
        </mxCell>
        <mxCell id="95CmSrwEK4jBnhM7cNss-45" value="" style="endArrow=classic;html=1;rounded=0;" edge="1" parent="95CmSrwEK4jBnhM7cNss-41">
          <mxGeometry width="50" height="50" relative="1" as="geometry">
            <mxPoint x="180" y="69.80000000000001" as="sourcePoint" />
            <mxPoint x="240" y="70" as="targetPoint" />
          </mxGeometry>
        </mxCell>
        <mxCell id="95CmSrwEK4jBnhM7cNss-46" value="out" style="edgeLabel;html=1;align=center;verticalAlign=middle;resizable=0;points=[];fontSize=9;" vertex="1" connectable="0" parent="95CmSrwEK4jBnhM7cNss-45">
          <mxGeometry x="-0.1967" y="-1" relative="1" as="geometry">
            <mxPoint as="offset" />
          </mxGeometry>
        </mxCell>
        <mxCell id="95CmSrwEK4jBnhM7cNss-47" value="" style="triangle;whiteSpace=wrap;html=1;direction=north;" vertex="1" parent="95CmSrwEK4jBnhM7cNss-41">
          <mxGeometry x="110" y="80" width="20" height="20" as="geometry" />
        </mxCell>
        <mxCell id="95CmSrwEK4jBnhM7cNss-48" value="" style="endArrow=classic;html=1;rounded=0;entryX=0;entryY=0.5;entryDx=0;entryDy=0;" edge="1" parent="95CmSrwEK4jBnhM7cNss-41">
          <mxGeometry width="50" height="50" relative="1" as="geometry">
            <mxPoint x="120" as="sourcePoint" />
            <mxPoint x="120" y="40" as="targetPoint" />
          </mxGeometry>
        </mxCell>
        <mxCell id="95CmSrwEK4jBnhM7cNss-49" value="load" style="edgeLabel;html=1;align=center;verticalAlign=middle;resizable=0;points=[];fontSize=9;" vertex="1" connectable="0" parent="95CmSrwEK4jBnhM7cNss-48">
          <mxGeometry x="-0.1967" y="-1" relative="1" as="geometry">
            <mxPoint as="offset" />
          </mxGeometry>
        </mxCell>
        <mxCell id="95CmSrwEK4jBnhM7cNss-50" value="" style="group" vertex="1" connectable="0" parent="1">
          <mxGeometry x="1280" y="1040" width="240" height="100" as="geometry" />
        </mxCell>
        <mxCell id="95CmSrwEK4jBnhM7cNss-189" style="edgeStyle=orthogonalEdgeStyle;rounded=0;orthogonalLoop=1;jettySize=auto;html=1;" edge="1" parent="95CmSrwEK4jBnhM7cNss-50" source="95CmSrwEK4jBnhM7cNss-51">
          <mxGeometry relative="1" as="geometry">
            <mxPoint x="2200" y="170" as="targetPoint" />
            <Array as="points">
              <mxPoint x="1360" y="70" />
              <mxPoint x="1360" y="170" />
            </Array>
          </mxGeometry>
        </mxCell>
        <mxCell id="95CmSrwEK4jBnhM7cNss-51" value="Bit" style="rounded=1;whiteSpace=wrap;html=1;" vertex="1" parent="95CmSrwEK4jBnhM7cNss-50">
          <mxGeometry x="60" y="40" width="120" height="60" as="geometry" />
        </mxCell>
        <mxCell id="95CmSrwEK4jBnhM7cNss-52" value="" style="endArrow=classic;html=1;rounded=0;entryX=0;entryY=0.5;entryDx=0;entryDy=0;" edge="1" parent="95CmSrwEK4jBnhM7cNss-50" target="95CmSrwEK4jBnhM7cNss-51">
          <mxGeometry width="50" height="50" relative="1" as="geometry">
            <mxPoint y="70" as="sourcePoint" />
            <mxPoint x="20" y="60" as="targetPoint" />
          </mxGeometry>
        </mxCell>
        <mxCell id="95CmSrwEK4jBnhM7cNss-53" value="in" style="edgeLabel;html=1;align=center;verticalAlign=middle;resizable=0;points=[];fontSize=9;" vertex="1" connectable="0" parent="95CmSrwEK4jBnhM7cNss-52">
          <mxGeometry x="-0.1967" y="-1" relative="1" as="geometry">
            <mxPoint as="offset" />
          </mxGeometry>
        </mxCell>
        <mxCell id="95CmSrwEK4jBnhM7cNss-54" value="" style="endArrow=classic;html=1;rounded=0;" edge="1" parent="95CmSrwEK4jBnhM7cNss-50">
          <mxGeometry width="50" height="50" relative="1" as="geometry">
            <mxPoint x="180" y="69.80000000000001" as="sourcePoint" />
            <mxPoint x="240" y="70" as="targetPoint" />
          </mxGeometry>
        </mxCell>
        <mxCell id="95CmSrwEK4jBnhM7cNss-55" value="out" style="edgeLabel;html=1;align=center;verticalAlign=middle;resizable=0;points=[];fontSize=9;" vertex="1" connectable="0" parent="95CmSrwEK4jBnhM7cNss-54">
          <mxGeometry x="-0.1967" y="-1" relative="1" as="geometry">
            <mxPoint as="offset" />
          </mxGeometry>
        </mxCell>
        <mxCell id="95CmSrwEK4jBnhM7cNss-56" value="" style="triangle;whiteSpace=wrap;html=1;direction=north;" vertex="1" parent="95CmSrwEK4jBnhM7cNss-50">
          <mxGeometry x="110" y="80" width="20" height="20" as="geometry" />
        </mxCell>
        <mxCell id="95CmSrwEK4jBnhM7cNss-57" value="" style="endArrow=classic;html=1;rounded=0;entryX=0;entryY=0.5;entryDx=0;entryDy=0;" edge="1" parent="95CmSrwEK4jBnhM7cNss-50">
          <mxGeometry width="50" height="50" relative="1" as="geometry">
            <mxPoint x="120" as="sourcePoint" />
            <mxPoint x="120" y="40" as="targetPoint" />
          </mxGeometry>
        </mxCell>
        <mxCell id="95CmSrwEK4jBnhM7cNss-58" value="load" style="edgeLabel;html=1;align=center;verticalAlign=middle;resizable=0;points=[];fontSize=9;" vertex="1" connectable="0" parent="95CmSrwEK4jBnhM7cNss-57">
          <mxGeometry x="-0.1967" y="-1" relative="1" as="geometry">
            <mxPoint as="offset" />
          </mxGeometry>
        </mxCell>
        <mxCell id="95CmSrwEK4jBnhM7cNss-59" value="" style="group" vertex="1" connectable="0" parent="1">
          <mxGeometry x="1440" y="1140" width="240" height="100" as="geometry" />
        </mxCell>
        <mxCell id="95CmSrwEK4jBnhM7cNss-188" style="edgeStyle=orthogonalEdgeStyle;rounded=0;orthogonalLoop=1;jettySize=auto;html=1;" edge="1" parent="95CmSrwEK4jBnhM7cNss-59" source="95CmSrwEK4jBnhM7cNss-60">
          <mxGeometry relative="1" as="geometry">
            <mxPoint x="2040" y="70" as="targetPoint" />
          </mxGeometry>
        </mxCell>
        <mxCell id="95CmSrwEK4jBnhM7cNss-60" value="Bit" style="rounded=1;whiteSpace=wrap;html=1;" vertex="1" parent="95CmSrwEK4jBnhM7cNss-59">
          <mxGeometry x="60" y="40" width="120" height="60" as="geometry" />
        </mxCell>
        <mxCell id="95CmSrwEK4jBnhM7cNss-61" value="" style="endArrow=classic;html=1;rounded=0;entryX=0;entryY=0.5;entryDx=0;entryDy=0;" edge="1" parent="95CmSrwEK4jBnhM7cNss-59" target="95CmSrwEK4jBnhM7cNss-60">
          <mxGeometry width="50" height="50" relative="1" as="geometry">
            <mxPoint y="70" as="sourcePoint" />
            <mxPoint x="20" y="60" as="targetPoint" />
          </mxGeometry>
        </mxCell>
        <mxCell id="95CmSrwEK4jBnhM7cNss-62" value="in" style="edgeLabel;html=1;align=center;verticalAlign=middle;resizable=0;points=[];fontSize=9;" vertex="1" connectable="0" parent="95CmSrwEK4jBnhM7cNss-61">
          <mxGeometry x="-0.1967" y="-1" relative="1" as="geometry">
            <mxPoint as="offset" />
          </mxGeometry>
        </mxCell>
        <mxCell id="95CmSrwEK4jBnhM7cNss-63" value="" style="endArrow=classic;html=1;rounded=0;" edge="1" parent="95CmSrwEK4jBnhM7cNss-59">
          <mxGeometry width="50" height="50" relative="1" as="geometry">
            <mxPoint x="180" y="69.80000000000001" as="sourcePoint" />
            <mxPoint x="240" y="70" as="targetPoint" />
          </mxGeometry>
        </mxCell>
        <mxCell id="95CmSrwEK4jBnhM7cNss-64" value="out" style="edgeLabel;html=1;align=center;verticalAlign=middle;resizable=0;points=[];fontSize=9;" vertex="1" connectable="0" parent="95CmSrwEK4jBnhM7cNss-63">
          <mxGeometry x="-0.1967" y="-1" relative="1" as="geometry">
            <mxPoint as="offset" />
          </mxGeometry>
        </mxCell>
        <mxCell id="95CmSrwEK4jBnhM7cNss-65" value="" style="triangle;whiteSpace=wrap;html=1;direction=north;" vertex="1" parent="95CmSrwEK4jBnhM7cNss-59">
          <mxGeometry x="110" y="80" width="20" height="20" as="geometry" />
        </mxCell>
        <mxCell id="95CmSrwEK4jBnhM7cNss-66" value="" style="endArrow=classic;html=1;rounded=0;entryX=0;entryY=0.5;entryDx=0;entryDy=0;" edge="1" parent="95CmSrwEK4jBnhM7cNss-59">
          <mxGeometry width="50" height="50" relative="1" as="geometry">
            <mxPoint x="120" as="sourcePoint" />
            <mxPoint x="120" y="40" as="targetPoint" />
          </mxGeometry>
        </mxCell>
        <mxCell id="95CmSrwEK4jBnhM7cNss-67" value="load" style="edgeLabel;html=1;align=center;verticalAlign=middle;resizable=0;points=[];fontSize=9;" vertex="1" connectable="0" parent="95CmSrwEK4jBnhM7cNss-66">
          <mxGeometry x="-0.1967" y="-1" relative="1" as="geometry">
            <mxPoint as="offset" />
          </mxGeometry>
        </mxCell>
        <mxCell id="95CmSrwEK4jBnhM7cNss-68" value="" style="endArrow=classic;html=1;rounded=0;" edge="1" parent="1">
          <mxGeometry width="50" height="50" relative="1" as="geometry">
            <mxPoint x="1559.41" y="200" as="sourcePoint" />
            <mxPoint x="1559.41" y="280" as="targetPoint" />
          </mxGeometry>
        </mxCell>
        <mxCell id="95CmSrwEK4jBnhM7cNss-69" value="load" style="edgeLabel;html=1;align=center;verticalAlign=middle;resizable=0;points=[];fontSize=15;" vertex="1" connectable="0" parent="95CmSrwEK4jBnhM7cNss-68">
          <mxGeometry x="-0.0362" relative="1" as="geometry">
            <mxPoint as="offset" />
          </mxGeometry>
        </mxCell>
        <mxCell id="95CmSrwEK4jBnhM7cNss-71" style="edgeStyle=orthogonalEdgeStyle;rounded=0;orthogonalLoop=1;jettySize=auto;html=1;fillColor=#60a917;strokeColor=#33FF33;" edge="1" parent="1">
          <mxGeometry relative="1" as="geometry">
            <mxPoint x="440" y="430" as="targetPoint" />
            <mxPoint x="1500" y="320.14285714285734" as="sourcePoint" />
          </mxGeometry>
        </mxCell>
        <mxCell id="95CmSrwEK4jBnhM7cNss-72" style="edgeStyle=orthogonalEdgeStyle;rounded=0;orthogonalLoop=1;jettySize=auto;html=1;fillColor=#60a917;strokeColor=#33FF33;" edge="1" parent="1">
          <mxGeometry relative="1" as="geometry">
            <mxPoint x="600" y="540.0000000000002" as="targetPoint" />
            <mxPoint x="1500" y="320.14285714285734" as="sourcePoint" />
          </mxGeometry>
        </mxCell>
        <mxCell id="95CmSrwEK4jBnhM7cNss-73" style="edgeStyle=orthogonalEdgeStyle;rounded=0;orthogonalLoop=1;jettySize=auto;html=1;fillColor=#60a917;strokeColor=#33FF33;" edge="1" parent="1">
          <mxGeometry relative="1" as="geometry">
            <mxPoint x="760" y="640.0000000000002" as="targetPoint" />
            <mxPoint x="1500" y="320.14285714285734" as="sourcePoint" />
          </mxGeometry>
        </mxCell>
        <mxCell id="95CmSrwEK4jBnhM7cNss-74" style="edgeStyle=orthogonalEdgeStyle;rounded=0;orthogonalLoop=1;jettySize=auto;html=1;fillColor=#60a917;strokeColor=#33FF33;" edge="1" parent="1">
          <mxGeometry relative="1" as="geometry">
            <mxPoint x="920" y="740.0000000000002" as="targetPoint" />
            <mxPoint x="1500" y="320.14285714285734" as="sourcePoint" />
          </mxGeometry>
        </mxCell>
        <mxCell id="95CmSrwEK4jBnhM7cNss-75" style="edgeStyle=orthogonalEdgeStyle;rounded=0;orthogonalLoop=1;jettySize=auto;html=1;fillColor=#60a917;strokeColor=#33FF33;" edge="1" parent="1">
          <mxGeometry relative="1" as="geometry">
            <mxPoint x="1080" y="840.0000000000002" as="targetPoint" />
            <mxPoint x="1550" y="321" as="sourcePoint" />
          </mxGeometry>
        </mxCell>
        <mxCell id="95CmSrwEK4jBnhM7cNss-76" style="edgeStyle=orthogonalEdgeStyle;rounded=0;orthogonalLoop=1;jettySize=auto;html=1;fillColor=#60a917;strokeColor=#33FF33;" edge="1" parent="1">
          <mxGeometry relative="1" as="geometry">
            <mxPoint x="1240" y="940" as="targetPoint" />
            <mxPoint x="1550" y="321" as="sourcePoint" />
          </mxGeometry>
        </mxCell>
        <mxCell id="95CmSrwEK4jBnhM7cNss-77" style="edgeStyle=orthogonalEdgeStyle;rounded=0;orthogonalLoop=1;jettySize=auto;html=1;fillColor=#60a917;strokeColor=#33FF33;" edge="1" parent="1">
          <mxGeometry relative="1" as="geometry">
            <mxPoint x="1400" y="1040" as="targetPoint" />
            <mxPoint x="1560" y="321" as="sourcePoint" />
          </mxGeometry>
        </mxCell>
        <mxCell id="95CmSrwEK4jBnhM7cNss-78" style="edgeStyle=orthogonalEdgeStyle;rounded=0;orthogonalLoop=1;jettySize=auto;html=1;fillColor=#60a917;strokeColor=#33FF33;" edge="1" parent="1">
          <mxGeometry relative="1" as="geometry">
            <mxPoint x="1560" y="1140" as="targetPoint" />
            <mxPoint x="1560" y="280" as="sourcePoint" />
          </mxGeometry>
        </mxCell>
        <mxCell id="95CmSrwEK4jBnhM7cNss-79" value="" style="group" vertex="1" connectable="0" parent="1">
          <mxGeometry x="1600" y="1240" width="240" height="100" as="geometry" />
        </mxCell>
        <mxCell id="95CmSrwEK4jBnhM7cNss-187" style="edgeStyle=orthogonalEdgeStyle;rounded=0;orthogonalLoop=1;jettySize=auto;html=1;" edge="1" parent="95CmSrwEK4jBnhM7cNss-79" source="95CmSrwEK4jBnhM7cNss-80">
          <mxGeometry relative="1" as="geometry">
            <mxPoint x="1880" y="-30" as="targetPoint" />
            <Array as="points">
              <mxPoint x="1040" y="70" />
              <mxPoint x="1040" y="-30" />
            </Array>
          </mxGeometry>
        </mxCell>
        <mxCell id="95CmSrwEK4jBnhM7cNss-80" value="Bit" style="rounded=1;whiteSpace=wrap;html=1;" vertex="1" parent="95CmSrwEK4jBnhM7cNss-79">
          <mxGeometry x="60" y="40" width="120" height="60" as="geometry" />
        </mxCell>
        <mxCell id="95CmSrwEK4jBnhM7cNss-81" value="" style="endArrow=classic;html=1;rounded=0;entryX=0;entryY=0.5;entryDx=0;entryDy=0;" edge="1" parent="95CmSrwEK4jBnhM7cNss-79" target="95CmSrwEK4jBnhM7cNss-80">
          <mxGeometry width="50" height="50" relative="1" as="geometry">
            <mxPoint y="70" as="sourcePoint" />
            <mxPoint x="20" y="60" as="targetPoint" />
          </mxGeometry>
        </mxCell>
        <mxCell id="95CmSrwEK4jBnhM7cNss-82" value="in" style="edgeLabel;html=1;align=center;verticalAlign=middle;resizable=0;points=[];fontSize=9;" vertex="1" connectable="0" parent="95CmSrwEK4jBnhM7cNss-81">
          <mxGeometry x="-0.1967" y="-1" relative="1" as="geometry">
            <mxPoint as="offset" />
          </mxGeometry>
        </mxCell>
        <mxCell id="95CmSrwEK4jBnhM7cNss-83" value="" style="endArrow=classic;html=1;rounded=0;" edge="1" parent="95CmSrwEK4jBnhM7cNss-79">
          <mxGeometry width="50" height="50" relative="1" as="geometry">
            <mxPoint x="180" y="69.80000000000001" as="sourcePoint" />
            <mxPoint x="240" y="70" as="targetPoint" />
          </mxGeometry>
        </mxCell>
        <mxCell id="95CmSrwEK4jBnhM7cNss-84" value="out" style="edgeLabel;html=1;align=center;verticalAlign=middle;resizable=0;points=[];fontSize=9;" vertex="1" connectable="0" parent="95CmSrwEK4jBnhM7cNss-83">
          <mxGeometry x="-0.1967" y="-1" relative="1" as="geometry">
            <mxPoint as="offset" />
          </mxGeometry>
        </mxCell>
        <mxCell id="95CmSrwEK4jBnhM7cNss-85" value="" style="triangle;whiteSpace=wrap;html=1;direction=north;" vertex="1" parent="95CmSrwEK4jBnhM7cNss-79">
          <mxGeometry x="110" y="80" width="20" height="20" as="geometry" />
        </mxCell>
        <mxCell id="95CmSrwEK4jBnhM7cNss-86" value="" style="endArrow=classic;html=1;rounded=0;entryX=0;entryY=0.5;entryDx=0;entryDy=0;" edge="1" parent="95CmSrwEK4jBnhM7cNss-79">
          <mxGeometry width="50" height="50" relative="1" as="geometry">
            <mxPoint x="120" as="sourcePoint" />
            <mxPoint x="120" y="40" as="targetPoint" />
          </mxGeometry>
        </mxCell>
        <mxCell id="95CmSrwEK4jBnhM7cNss-87" value="load" style="edgeLabel;html=1;align=center;verticalAlign=middle;resizable=0;points=[];fontSize=9;" vertex="1" connectable="0" parent="95CmSrwEK4jBnhM7cNss-86">
          <mxGeometry x="-0.1967" y="-1" relative="1" as="geometry">
            <mxPoint as="offset" />
          </mxGeometry>
        </mxCell>
        <mxCell id="95CmSrwEK4jBnhM7cNss-88" value="" style="group" vertex="1" connectable="0" parent="1">
          <mxGeometry x="1760" y="1340" width="240" height="100" as="geometry" />
        </mxCell>
        <mxCell id="95CmSrwEK4jBnhM7cNss-186" style="edgeStyle=orthogonalEdgeStyle;rounded=0;orthogonalLoop=1;jettySize=auto;html=1;" edge="1" parent="95CmSrwEK4jBnhM7cNss-88" source="95CmSrwEK4jBnhM7cNss-89">
          <mxGeometry relative="1" as="geometry">
            <mxPoint x="1720" y="-130" as="targetPoint" />
            <Array as="points">
              <mxPoint x="960" y="70" />
              <mxPoint x="960" y="-130" />
            </Array>
          </mxGeometry>
        </mxCell>
        <mxCell id="95CmSrwEK4jBnhM7cNss-89" value="Bit" style="rounded=1;whiteSpace=wrap;html=1;" vertex="1" parent="95CmSrwEK4jBnhM7cNss-88">
          <mxGeometry x="60" y="40" width="120" height="60" as="geometry" />
        </mxCell>
        <mxCell id="95CmSrwEK4jBnhM7cNss-90" value="" style="endArrow=classic;html=1;rounded=0;entryX=0;entryY=0.5;entryDx=0;entryDy=0;" edge="1" parent="95CmSrwEK4jBnhM7cNss-88" target="95CmSrwEK4jBnhM7cNss-89">
          <mxGeometry width="50" height="50" relative="1" as="geometry">
            <mxPoint y="70" as="sourcePoint" />
            <mxPoint x="20" y="60" as="targetPoint" />
          </mxGeometry>
        </mxCell>
        <mxCell id="95CmSrwEK4jBnhM7cNss-91" value="in" style="edgeLabel;html=1;align=center;verticalAlign=middle;resizable=0;points=[];fontSize=9;" vertex="1" connectable="0" parent="95CmSrwEK4jBnhM7cNss-90">
          <mxGeometry x="-0.1967" y="-1" relative="1" as="geometry">
            <mxPoint as="offset" />
          </mxGeometry>
        </mxCell>
        <mxCell id="95CmSrwEK4jBnhM7cNss-92" value="" style="endArrow=classic;html=1;rounded=0;" edge="1" parent="95CmSrwEK4jBnhM7cNss-88">
          <mxGeometry width="50" height="50" relative="1" as="geometry">
            <mxPoint x="180" y="69.80000000000001" as="sourcePoint" />
            <mxPoint x="240" y="70" as="targetPoint" />
          </mxGeometry>
        </mxCell>
        <mxCell id="95CmSrwEK4jBnhM7cNss-93" value="out" style="edgeLabel;html=1;align=center;verticalAlign=middle;resizable=0;points=[];fontSize=9;" vertex="1" connectable="0" parent="95CmSrwEK4jBnhM7cNss-92">
          <mxGeometry x="-0.1967" y="-1" relative="1" as="geometry">
            <mxPoint as="offset" />
          </mxGeometry>
        </mxCell>
        <mxCell id="95CmSrwEK4jBnhM7cNss-94" value="" style="triangle;whiteSpace=wrap;html=1;direction=north;" vertex="1" parent="95CmSrwEK4jBnhM7cNss-88">
          <mxGeometry x="110" y="80" width="20" height="20" as="geometry" />
        </mxCell>
        <mxCell id="95CmSrwEK4jBnhM7cNss-95" value="" style="endArrow=classic;html=1;rounded=0;entryX=0;entryY=0.5;entryDx=0;entryDy=0;" edge="1" parent="95CmSrwEK4jBnhM7cNss-88">
          <mxGeometry width="50" height="50" relative="1" as="geometry">
            <mxPoint x="120" as="sourcePoint" />
            <mxPoint x="120" y="40" as="targetPoint" />
          </mxGeometry>
        </mxCell>
        <mxCell id="95CmSrwEK4jBnhM7cNss-96" value="load" style="edgeLabel;html=1;align=center;verticalAlign=middle;resizable=0;points=[];fontSize=9;" vertex="1" connectable="0" parent="95CmSrwEK4jBnhM7cNss-95">
          <mxGeometry x="-0.1967" y="-1" relative="1" as="geometry">
            <mxPoint as="offset" />
          </mxGeometry>
        </mxCell>
        <mxCell id="95CmSrwEK4jBnhM7cNss-97" value="" style="group" vertex="1" connectable="0" parent="1">
          <mxGeometry x="1920" y="1440" width="240" height="100" as="geometry" />
        </mxCell>
        <mxCell id="95CmSrwEK4jBnhM7cNss-185" style="edgeStyle=orthogonalEdgeStyle;rounded=0;orthogonalLoop=1;jettySize=auto;html=1;" edge="1" parent="95CmSrwEK4jBnhM7cNss-97" source="95CmSrwEK4jBnhM7cNss-98">
          <mxGeometry relative="1" as="geometry">
            <mxPoint x="1560" y="-230" as="targetPoint" />
            <Array as="points">
              <mxPoint x="880" y="70" />
              <mxPoint x="880" y="-230" />
            </Array>
          </mxGeometry>
        </mxCell>
        <mxCell id="95CmSrwEK4jBnhM7cNss-98" value="Bit" style="rounded=1;whiteSpace=wrap;html=1;" vertex="1" parent="95CmSrwEK4jBnhM7cNss-97">
          <mxGeometry x="60" y="40" width="120" height="60" as="geometry" />
        </mxCell>
        <mxCell id="95CmSrwEK4jBnhM7cNss-99" value="" style="endArrow=classic;html=1;rounded=0;entryX=0;entryY=0.5;entryDx=0;entryDy=0;" edge="1" parent="95CmSrwEK4jBnhM7cNss-97" target="95CmSrwEK4jBnhM7cNss-98">
          <mxGeometry width="50" height="50" relative="1" as="geometry">
            <mxPoint y="70" as="sourcePoint" />
            <mxPoint x="20" y="60" as="targetPoint" />
          </mxGeometry>
        </mxCell>
        <mxCell id="95CmSrwEK4jBnhM7cNss-100" value="in" style="edgeLabel;html=1;align=center;verticalAlign=middle;resizable=0;points=[];fontSize=9;" vertex="1" connectable="0" parent="95CmSrwEK4jBnhM7cNss-99">
          <mxGeometry x="-0.1967" y="-1" relative="1" as="geometry">
            <mxPoint as="offset" />
          </mxGeometry>
        </mxCell>
        <mxCell id="95CmSrwEK4jBnhM7cNss-101" value="" style="endArrow=classic;html=1;rounded=0;" edge="1" parent="95CmSrwEK4jBnhM7cNss-97">
          <mxGeometry width="50" height="50" relative="1" as="geometry">
            <mxPoint x="180" y="69.80000000000001" as="sourcePoint" />
            <mxPoint x="240" y="70" as="targetPoint" />
          </mxGeometry>
        </mxCell>
        <mxCell id="95CmSrwEK4jBnhM7cNss-102" value="out" style="edgeLabel;html=1;align=center;verticalAlign=middle;resizable=0;points=[];fontSize=9;" vertex="1" connectable="0" parent="95CmSrwEK4jBnhM7cNss-101">
          <mxGeometry x="-0.1967" y="-1" relative="1" as="geometry">
            <mxPoint as="offset" />
          </mxGeometry>
        </mxCell>
        <mxCell id="95CmSrwEK4jBnhM7cNss-103" value="" style="triangle;whiteSpace=wrap;html=1;direction=north;" vertex="1" parent="95CmSrwEK4jBnhM7cNss-97">
          <mxGeometry x="110" y="80" width="20" height="20" as="geometry" />
        </mxCell>
        <mxCell id="95CmSrwEK4jBnhM7cNss-104" value="" style="endArrow=classic;html=1;rounded=0;entryX=0;entryY=0.5;entryDx=0;entryDy=0;" edge="1" parent="95CmSrwEK4jBnhM7cNss-97">
          <mxGeometry width="50" height="50" relative="1" as="geometry">
            <mxPoint x="120" as="sourcePoint" />
            <mxPoint x="120" y="40" as="targetPoint" />
          </mxGeometry>
        </mxCell>
        <mxCell id="95CmSrwEK4jBnhM7cNss-105" value="load" style="edgeLabel;html=1;align=center;verticalAlign=middle;resizable=0;points=[];fontSize=9;" vertex="1" connectable="0" parent="95CmSrwEK4jBnhM7cNss-104">
          <mxGeometry x="-0.1967" y="-1" relative="1" as="geometry">
            <mxPoint as="offset" />
          </mxGeometry>
        </mxCell>
        <mxCell id="95CmSrwEK4jBnhM7cNss-106" value="" style="group" vertex="1" connectable="0" parent="1">
          <mxGeometry x="2080" y="1540" width="240" height="100" as="geometry" />
        </mxCell>
        <mxCell id="95CmSrwEK4jBnhM7cNss-183" style="edgeStyle=orthogonalEdgeStyle;rounded=0;orthogonalLoop=1;jettySize=auto;html=1;" edge="1" parent="95CmSrwEK4jBnhM7cNss-106" source="95CmSrwEK4jBnhM7cNss-107">
          <mxGeometry relative="1" as="geometry">
            <mxPoint x="1400" y="-330" as="targetPoint" />
            <Array as="points">
              <mxPoint x="800" y="70" />
              <mxPoint x="800" y="-330" />
            </Array>
          </mxGeometry>
        </mxCell>
        <mxCell id="95CmSrwEK4jBnhM7cNss-107" value="Bit" style="rounded=1;whiteSpace=wrap;html=1;" vertex="1" parent="95CmSrwEK4jBnhM7cNss-106">
          <mxGeometry x="60" y="40" width="120" height="60" as="geometry" />
        </mxCell>
        <mxCell id="95CmSrwEK4jBnhM7cNss-108" value="" style="endArrow=classic;html=1;rounded=0;entryX=0;entryY=0.5;entryDx=0;entryDy=0;" edge="1" parent="95CmSrwEK4jBnhM7cNss-106" target="95CmSrwEK4jBnhM7cNss-107">
          <mxGeometry width="50" height="50" relative="1" as="geometry">
            <mxPoint y="70" as="sourcePoint" />
            <mxPoint x="20" y="60" as="targetPoint" />
          </mxGeometry>
        </mxCell>
        <mxCell id="95CmSrwEK4jBnhM7cNss-109" value="in" style="edgeLabel;html=1;align=center;verticalAlign=middle;resizable=0;points=[];fontSize=9;" vertex="1" connectable="0" parent="95CmSrwEK4jBnhM7cNss-108">
          <mxGeometry x="-0.1967" y="-1" relative="1" as="geometry">
            <mxPoint as="offset" />
          </mxGeometry>
        </mxCell>
        <mxCell id="95CmSrwEK4jBnhM7cNss-110" value="" style="endArrow=classic;html=1;rounded=0;" edge="1" parent="95CmSrwEK4jBnhM7cNss-106">
          <mxGeometry width="50" height="50" relative="1" as="geometry">
            <mxPoint x="180" y="69.80000000000001" as="sourcePoint" />
            <mxPoint x="240" y="70" as="targetPoint" />
          </mxGeometry>
        </mxCell>
        <mxCell id="95CmSrwEK4jBnhM7cNss-111" value="out" style="edgeLabel;html=1;align=center;verticalAlign=middle;resizable=0;points=[];fontSize=9;" vertex="1" connectable="0" parent="95CmSrwEK4jBnhM7cNss-110">
          <mxGeometry x="-0.1967" y="-1" relative="1" as="geometry">
            <mxPoint as="offset" />
          </mxGeometry>
        </mxCell>
        <mxCell id="95CmSrwEK4jBnhM7cNss-112" value="" style="triangle;whiteSpace=wrap;html=1;direction=north;" vertex="1" parent="95CmSrwEK4jBnhM7cNss-106">
          <mxGeometry x="110" y="80" width="20" height="20" as="geometry" />
        </mxCell>
        <mxCell id="95CmSrwEK4jBnhM7cNss-113" value="" style="endArrow=classic;html=1;rounded=0;entryX=0;entryY=0.5;entryDx=0;entryDy=0;" edge="1" parent="95CmSrwEK4jBnhM7cNss-106">
          <mxGeometry width="50" height="50" relative="1" as="geometry">
            <mxPoint x="120" as="sourcePoint" />
            <mxPoint x="120" y="40" as="targetPoint" />
          </mxGeometry>
        </mxCell>
        <mxCell id="95CmSrwEK4jBnhM7cNss-114" value="load" style="edgeLabel;html=1;align=center;verticalAlign=middle;resizable=0;points=[];fontSize=9;" vertex="1" connectable="0" parent="95CmSrwEK4jBnhM7cNss-113">
          <mxGeometry x="-0.1967" y="-1" relative="1" as="geometry">
            <mxPoint as="offset" />
          </mxGeometry>
        </mxCell>
        <mxCell id="95CmSrwEK4jBnhM7cNss-115" value="" style="group" vertex="1" connectable="0" parent="1">
          <mxGeometry x="2240" y="1640" width="240" height="100" as="geometry" />
        </mxCell>
        <mxCell id="95CmSrwEK4jBnhM7cNss-182" style="edgeStyle=orthogonalEdgeStyle;rounded=0;orthogonalLoop=1;jettySize=auto;html=1;" edge="1" parent="95CmSrwEK4jBnhM7cNss-115" source="95CmSrwEK4jBnhM7cNss-116">
          <mxGeometry relative="1" as="geometry">
            <mxPoint x="1240" y="-430" as="targetPoint" />
            <Array as="points">
              <mxPoint x="720" y="70" />
              <mxPoint x="720" y="-430" />
            </Array>
          </mxGeometry>
        </mxCell>
        <mxCell id="95CmSrwEK4jBnhM7cNss-116" value="Bit" style="rounded=1;whiteSpace=wrap;html=1;" vertex="1" parent="95CmSrwEK4jBnhM7cNss-115">
          <mxGeometry x="60" y="40" width="120" height="60" as="geometry" />
        </mxCell>
        <mxCell id="95CmSrwEK4jBnhM7cNss-117" value="" style="endArrow=classic;html=1;rounded=0;entryX=0;entryY=0.5;entryDx=0;entryDy=0;" edge="1" parent="95CmSrwEK4jBnhM7cNss-115" target="95CmSrwEK4jBnhM7cNss-116">
          <mxGeometry width="50" height="50" relative="1" as="geometry">
            <mxPoint y="70" as="sourcePoint" />
            <mxPoint x="20" y="60" as="targetPoint" />
          </mxGeometry>
        </mxCell>
        <mxCell id="95CmSrwEK4jBnhM7cNss-118" value="in" style="edgeLabel;html=1;align=center;verticalAlign=middle;resizable=0;points=[];fontSize=9;" vertex="1" connectable="0" parent="95CmSrwEK4jBnhM7cNss-117">
          <mxGeometry x="-0.1967" y="-1" relative="1" as="geometry">
            <mxPoint as="offset" />
          </mxGeometry>
        </mxCell>
        <mxCell id="95CmSrwEK4jBnhM7cNss-119" value="" style="endArrow=classic;html=1;rounded=0;" edge="1" parent="95CmSrwEK4jBnhM7cNss-115">
          <mxGeometry width="50" height="50" relative="1" as="geometry">
            <mxPoint x="180" y="69.80000000000001" as="sourcePoint" />
            <mxPoint x="240" y="70" as="targetPoint" />
          </mxGeometry>
        </mxCell>
        <mxCell id="95CmSrwEK4jBnhM7cNss-120" value="out" style="edgeLabel;html=1;align=center;verticalAlign=middle;resizable=0;points=[];fontSize=9;" vertex="1" connectable="0" parent="95CmSrwEK4jBnhM7cNss-119">
          <mxGeometry x="-0.1967" y="-1" relative="1" as="geometry">
            <mxPoint as="offset" />
          </mxGeometry>
        </mxCell>
        <mxCell id="95CmSrwEK4jBnhM7cNss-121" value="" style="triangle;whiteSpace=wrap;html=1;direction=north;" vertex="1" parent="95CmSrwEK4jBnhM7cNss-115">
          <mxGeometry x="110" y="80" width="20" height="20" as="geometry" />
        </mxCell>
        <mxCell id="95CmSrwEK4jBnhM7cNss-122" value="" style="endArrow=classic;html=1;rounded=0;entryX=0;entryY=0.5;entryDx=0;entryDy=0;" edge="1" parent="95CmSrwEK4jBnhM7cNss-115">
          <mxGeometry width="50" height="50" relative="1" as="geometry">
            <mxPoint x="120" as="sourcePoint" />
            <mxPoint x="120" y="40" as="targetPoint" />
          </mxGeometry>
        </mxCell>
        <mxCell id="95CmSrwEK4jBnhM7cNss-123" value="load" style="edgeLabel;html=1;align=center;verticalAlign=middle;resizable=0;points=[];fontSize=9;" vertex="1" connectable="0" parent="95CmSrwEK4jBnhM7cNss-122">
          <mxGeometry x="-0.1967" y="-1" relative="1" as="geometry">
            <mxPoint as="offset" />
          </mxGeometry>
        </mxCell>
        <mxCell id="95CmSrwEK4jBnhM7cNss-124" value="" style="group" vertex="1" connectable="0" parent="1">
          <mxGeometry x="2400" y="1740" width="240" height="100" as="geometry" />
        </mxCell>
        <mxCell id="95CmSrwEK4jBnhM7cNss-181" style="edgeStyle=orthogonalEdgeStyle;rounded=0;orthogonalLoop=1;jettySize=auto;html=1;" edge="1" parent="95CmSrwEK4jBnhM7cNss-124" source="95CmSrwEK4jBnhM7cNss-125">
          <mxGeometry relative="1" as="geometry">
            <mxPoint x="1080" y="-530" as="targetPoint" />
            <Array as="points">
              <mxPoint x="640" y="70" />
              <mxPoint x="640" y="-530" />
            </Array>
          </mxGeometry>
        </mxCell>
        <mxCell id="95CmSrwEK4jBnhM7cNss-125" value="Bit" style="rounded=1;whiteSpace=wrap;html=1;" vertex="1" parent="95CmSrwEK4jBnhM7cNss-124">
          <mxGeometry x="60" y="40" width="120" height="60" as="geometry" />
        </mxCell>
        <mxCell id="95CmSrwEK4jBnhM7cNss-126" value="" style="endArrow=classic;html=1;rounded=0;entryX=0;entryY=0.5;entryDx=0;entryDy=0;" edge="1" parent="95CmSrwEK4jBnhM7cNss-124" target="95CmSrwEK4jBnhM7cNss-125">
          <mxGeometry width="50" height="50" relative="1" as="geometry">
            <mxPoint y="70" as="sourcePoint" />
            <mxPoint x="20" y="60" as="targetPoint" />
          </mxGeometry>
        </mxCell>
        <mxCell id="95CmSrwEK4jBnhM7cNss-127" value="in" style="edgeLabel;html=1;align=center;verticalAlign=middle;resizable=0;points=[];fontSize=9;" vertex="1" connectable="0" parent="95CmSrwEK4jBnhM7cNss-126">
          <mxGeometry x="-0.1967" y="-1" relative="1" as="geometry">
            <mxPoint as="offset" />
          </mxGeometry>
        </mxCell>
        <mxCell id="95CmSrwEK4jBnhM7cNss-128" value="" style="endArrow=classic;html=1;rounded=0;" edge="1" parent="95CmSrwEK4jBnhM7cNss-124">
          <mxGeometry width="50" height="50" relative="1" as="geometry">
            <mxPoint x="180" y="69.80000000000001" as="sourcePoint" />
            <mxPoint x="240" y="70" as="targetPoint" />
          </mxGeometry>
        </mxCell>
        <mxCell id="95CmSrwEK4jBnhM7cNss-129" value="out" style="edgeLabel;html=1;align=center;verticalAlign=middle;resizable=0;points=[];fontSize=9;" vertex="1" connectable="0" parent="95CmSrwEK4jBnhM7cNss-128">
          <mxGeometry x="-0.1967" y="-1" relative="1" as="geometry">
            <mxPoint as="offset" />
          </mxGeometry>
        </mxCell>
        <mxCell id="95CmSrwEK4jBnhM7cNss-130" value="" style="triangle;whiteSpace=wrap;html=1;direction=north;" vertex="1" parent="95CmSrwEK4jBnhM7cNss-124">
          <mxGeometry x="110" y="80" width="20" height="20" as="geometry" />
        </mxCell>
        <mxCell id="95CmSrwEK4jBnhM7cNss-131" value="" style="endArrow=classic;html=1;rounded=0;entryX=0;entryY=0.5;entryDx=0;entryDy=0;" edge="1" parent="95CmSrwEK4jBnhM7cNss-124">
          <mxGeometry width="50" height="50" relative="1" as="geometry">
            <mxPoint x="120" as="sourcePoint" />
            <mxPoint x="120" y="40" as="targetPoint" />
          </mxGeometry>
        </mxCell>
        <mxCell id="95CmSrwEK4jBnhM7cNss-132" value="load" style="edgeLabel;html=1;align=center;verticalAlign=middle;resizable=0;points=[];fontSize=9;" vertex="1" connectable="0" parent="95CmSrwEK4jBnhM7cNss-131">
          <mxGeometry x="-0.1967" y="-1" relative="1" as="geometry">
            <mxPoint as="offset" />
          </mxGeometry>
        </mxCell>
        <mxCell id="95CmSrwEK4jBnhM7cNss-133" value="" style="group" vertex="1" connectable="0" parent="1">
          <mxGeometry x="2560" y="1840" width="240" height="100" as="geometry" />
        </mxCell>
        <mxCell id="95CmSrwEK4jBnhM7cNss-180" style="edgeStyle=orthogonalEdgeStyle;rounded=0;orthogonalLoop=1;jettySize=auto;html=1;" edge="1" parent="95CmSrwEK4jBnhM7cNss-133" source="95CmSrwEK4jBnhM7cNss-134">
          <mxGeometry relative="1" as="geometry">
            <mxPoint x="920" y="-630" as="targetPoint" />
            <Array as="points">
              <mxPoint x="560" y="70" />
              <mxPoint x="560" y="-630" />
              <mxPoint x="910" y="-630" />
            </Array>
          </mxGeometry>
        </mxCell>
        <mxCell id="95CmSrwEK4jBnhM7cNss-134" value="Bit" style="rounded=1;whiteSpace=wrap;html=1;" vertex="1" parent="95CmSrwEK4jBnhM7cNss-133">
          <mxGeometry x="60" y="40" width="120" height="60" as="geometry" />
        </mxCell>
        <mxCell id="95CmSrwEK4jBnhM7cNss-135" value="" style="endArrow=classic;html=1;rounded=0;entryX=0;entryY=0.5;entryDx=0;entryDy=0;" edge="1" parent="95CmSrwEK4jBnhM7cNss-133" target="95CmSrwEK4jBnhM7cNss-134">
          <mxGeometry width="50" height="50" relative="1" as="geometry">
            <mxPoint y="70" as="sourcePoint" />
            <mxPoint x="20" y="60" as="targetPoint" />
          </mxGeometry>
        </mxCell>
        <mxCell id="95CmSrwEK4jBnhM7cNss-136" value="in" style="edgeLabel;html=1;align=center;verticalAlign=middle;resizable=0;points=[];fontSize=9;" vertex="1" connectable="0" parent="95CmSrwEK4jBnhM7cNss-135">
          <mxGeometry x="-0.1967" y="-1" relative="1" as="geometry">
            <mxPoint as="offset" />
          </mxGeometry>
        </mxCell>
        <mxCell id="95CmSrwEK4jBnhM7cNss-137" value="" style="endArrow=classic;html=1;rounded=0;" edge="1" parent="95CmSrwEK4jBnhM7cNss-133">
          <mxGeometry width="50" height="50" relative="1" as="geometry">
            <mxPoint x="180" y="69.80000000000001" as="sourcePoint" />
            <mxPoint x="240" y="70" as="targetPoint" />
          </mxGeometry>
        </mxCell>
        <mxCell id="95CmSrwEK4jBnhM7cNss-138" value="out" style="edgeLabel;html=1;align=center;verticalAlign=middle;resizable=0;points=[];fontSize=9;" vertex="1" connectable="0" parent="95CmSrwEK4jBnhM7cNss-137">
          <mxGeometry x="-0.1967" y="-1" relative="1" as="geometry">
            <mxPoint as="offset" />
          </mxGeometry>
        </mxCell>
        <mxCell id="95CmSrwEK4jBnhM7cNss-139" value="" style="triangle;whiteSpace=wrap;html=1;direction=north;" vertex="1" parent="95CmSrwEK4jBnhM7cNss-133">
          <mxGeometry x="110" y="80" width="20" height="20" as="geometry" />
        </mxCell>
        <mxCell id="95CmSrwEK4jBnhM7cNss-140" value="" style="endArrow=classic;html=1;rounded=0;entryX=0;entryY=0.5;entryDx=0;entryDy=0;" edge="1" parent="95CmSrwEK4jBnhM7cNss-133">
          <mxGeometry width="50" height="50" relative="1" as="geometry">
            <mxPoint x="120" as="sourcePoint" />
            <mxPoint x="120" y="40" as="targetPoint" />
          </mxGeometry>
        </mxCell>
        <mxCell id="95CmSrwEK4jBnhM7cNss-141" value="load" style="edgeLabel;html=1;align=center;verticalAlign=middle;resizable=0;points=[];fontSize=9;" vertex="1" connectable="0" parent="95CmSrwEK4jBnhM7cNss-140">
          <mxGeometry x="-0.1967" y="-1" relative="1" as="geometry">
            <mxPoint as="offset" />
          </mxGeometry>
        </mxCell>
        <mxCell id="95CmSrwEK4jBnhM7cNss-142" value="" style="group" vertex="1" connectable="0" parent="1">
          <mxGeometry x="2720" y="1940" width="240" height="100" as="geometry" />
        </mxCell>
        <mxCell id="95CmSrwEK4jBnhM7cNss-179" style="edgeStyle=orthogonalEdgeStyle;rounded=0;orthogonalLoop=1;jettySize=auto;html=1;" edge="1" parent="95CmSrwEK4jBnhM7cNss-142" source="95CmSrwEK4jBnhM7cNss-143">
          <mxGeometry relative="1" as="geometry">
            <mxPoint x="760" y="-730" as="targetPoint" />
            <Array as="points">
              <mxPoint x="480" y="70" />
              <mxPoint x="480" y="-730" />
            </Array>
          </mxGeometry>
        </mxCell>
        <mxCell id="95CmSrwEK4jBnhM7cNss-143" value="Bit" style="rounded=1;whiteSpace=wrap;html=1;" vertex="1" parent="95CmSrwEK4jBnhM7cNss-142">
          <mxGeometry x="60" y="40" width="120" height="60" as="geometry" />
        </mxCell>
        <mxCell id="95CmSrwEK4jBnhM7cNss-144" value="" style="endArrow=classic;html=1;rounded=0;entryX=0;entryY=0.5;entryDx=0;entryDy=0;" edge="1" parent="95CmSrwEK4jBnhM7cNss-142" target="95CmSrwEK4jBnhM7cNss-143">
          <mxGeometry width="50" height="50" relative="1" as="geometry">
            <mxPoint y="70" as="sourcePoint" />
            <mxPoint x="20" y="60" as="targetPoint" />
          </mxGeometry>
        </mxCell>
        <mxCell id="95CmSrwEK4jBnhM7cNss-145" value="in" style="edgeLabel;html=1;align=center;verticalAlign=middle;resizable=0;points=[];fontSize=9;" vertex="1" connectable="0" parent="95CmSrwEK4jBnhM7cNss-144">
          <mxGeometry x="-0.1967" y="-1" relative="1" as="geometry">
            <mxPoint as="offset" />
          </mxGeometry>
        </mxCell>
        <mxCell id="95CmSrwEK4jBnhM7cNss-146" value="" style="endArrow=classic;html=1;rounded=0;" edge="1" parent="95CmSrwEK4jBnhM7cNss-142">
          <mxGeometry width="50" height="50" relative="1" as="geometry">
            <mxPoint x="180" y="69.80000000000001" as="sourcePoint" />
            <mxPoint x="240" y="70" as="targetPoint" />
          </mxGeometry>
        </mxCell>
        <mxCell id="95CmSrwEK4jBnhM7cNss-147" value="out" style="edgeLabel;html=1;align=center;verticalAlign=middle;resizable=0;points=[];fontSize=9;" vertex="1" connectable="0" parent="95CmSrwEK4jBnhM7cNss-146">
          <mxGeometry x="-0.1967" y="-1" relative="1" as="geometry">
            <mxPoint as="offset" />
          </mxGeometry>
        </mxCell>
        <mxCell id="95CmSrwEK4jBnhM7cNss-148" value="" style="triangle;whiteSpace=wrap;html=1;direction=north;" vertex="1" parent="95CmSrwEK4jBnhM7cNss-142">
          <mxGeometry x="110" y="80" width="20" height="20" as="geometry" />
        </mxCell>
        <mxCell id="95CmSrwEK4jBnhM7cNss-149" value="" style="endArrow=classic;html=1;rounded=0;entryX=0;entryY=0.5;entryDx=0;entryDy=0;" edge="1" parent="95CmSrwEK4jBnhM7cNss-142">
          <mxGeometry width="50" height="50" relative="1" as="geometry">
            <mxPoint x="120" as="sourcePoint" />
            <mxPoint x="120" y="40" as="targetPoint" />
          </mxGeometry>
        </mxCell>
        <mxCell id="95CmSrwEK4jBnhM7cNss-150" value="load" style="edgeLabel;html=1;align=center;verticalAlign=middle;resizable=0;points=[];fontSize=9;" vertex="1" connectable="0" parent="95CmSrwEK4jBnhM7cNss-149">
          <mxGeometry x="-0.1967" y="-1" relative="1" as="geometry">
            <mxPoint as="offset" />
          </mxGeometry>
        </mxCell>
        <mxCell id="95CmSrwEK4jBnhM7cNss-151" style="edgeStyle=orthogonalEdgeStyle;rounded=0;orthogonalLoop=1;jettySize=auto;html=1;fillColor=#60a917;strokeColor=#33FF33;" edge="1" parent="1">
          <mxGeometry relative="1" as="geometry">
            <mxPoint x="1720" y="1250" as="targetPoint" />
            <mxPoint x="1620" y="320.14285714285734" as="sourcePoint" />
          </mxGeometry>
        </mxCell>
        <mxCell id="95CmSrwEK4jBnhM7cNss-152" style="edgeStyle=orthogonalEdgeStyle;rounded=0;orthogonalLoop=1;jettySize=auto;html=1;fillColor=#60a917;strokeColor=#33FF33;" edge="1" parent="1">
          <mxGeometry relative="1" as="geometry">
            <mxPoint x="1880" y="1350" as="targetPoint" />
            <mxPoint x="1620" y="320.14285714285734" as="sourcePoint" />
          </mxGeometry>
        </mxCell>
        <mxCell id="95CmSrwEK4jBnhM7cNss-153" style="edgeStyle=orthogonalEdgeStyle;rounded=0;orthogonalLoop=1;jettySize=auto;html=1;fillColor=#60a917;strokeColor=#33FF33;" edge="1" parent="1">
          <mxGeometry relative="1" as="geometry">
            <mxPoint x="2040" y="1450" as="targetPoint" />
            <mxPoint x="1620" y="320.14285714285734" as="sourcePoint" />
          </mxGeometry>
        </mxCell>
        <mxCell id="95CmSrwEK4jBnhM7cNss-154" style="edgeStyle=orthogonalEdgeStyle;rounded=0;orthogonalLoop=1;jettySize=auto;html=1;fillColor=#60a917;strokeColor=#33FF33;" edge="1" parent="1">
          <mxGeometry relative="1" as="geometry">
            <mxPoint x="2200" y="1540" as="targetPoint" />
            <mxPoint x="1620" y="320.14285714285734" as="sourcePoint" />
          </mxGeometry>
        </mxCell>
        <mxCell id="95CmSrwEK4jBnhM7cNss-155" style="edgeStyle=orthogonalEdgeStyle;rounded=0;orthogonalLoop=1;jettySize=auto;html=1;fillColor=#60a917;strokeColor=#33FF33;" edge="1" parent="1">
          <mxGeometry relative="1" as="geometry">
            <mxPoint x="2360" y="1640" as="targetPoint" />
            <mxPoint x="1620" y="320.14285714285734" as="sourcePoint" />
          </mxGeometry>
        </mxCell>
        <mxCell id="95CmSrwEK4jBnhM7cNss-156" style="edgeStyle=orthogonalEdgeStyle;rounded=0;orthogonalLoop=1;jettySize=auto;html=1;fillColor=#60a917;strokeColor=#33FF33;" edge="1" parent="1">
          <mxGeometry relative="1" as="geometry">
            <mxPoint x="2520" y="1750" as="targetPoint" />
            <mxPoint x="1620" y="320.14285714285734" as="sourcePoint" />
          </mxGeometry>
        </mxCell>
        <mxCell id="95CmSrwEK4jBnhM7cNss-157" style="edgeStyle=orthogonalEdgeStyle;rounded=0;orthogonalLoop=1;jettySize=auto;html=1;fillColor=#60a917;strokeColor=#33FF33;" edge="1" parent="1">
          <mxGeometry relative="1" as="geometry">
            <mxPoint x="2680" y="1850" as="targetPoint" />
            <mxPoint x="1620" y="320.14285714285734" as="sourcePoint" />
          </mxGeometry>
        </mxCell>
        <mxCell id="95CmSrwEK4jBnhM7cNss-158" style="edgeStyle=orthogonalEdgeStyle;rounded=0;orthogonalLoop=1;jettySize=auto;html=1;fillColor=#60a917;strokeColor=#33FF33;" edge="1" parent="1">
          <mxGeometry relative="1" as="geometry">
            <mxPoint x="2840" y="1950" as="targetPoint" />
            <mxPoint x="1560" y="321" as="sourcePoint" />
          </mxGeometry>
        </mxCell>
        <mxCell id="95CmSrwEK4jBnhM7cNss-161" style="edgeStyle=orthogonalEdgeStyle;rounded=0;orthogonalLoop=1;jettySize=auto;html=1;strokeColor=#FF0000;" edge="1" parent="1">
          <mxGeometry relative="1" as="geometry">
            <mxPoint x="320" y="520" as="targetPoint" />
            <mxPoint x="120" y="1190" as="sourcePoint" />
          </mxGeometry>
        </mxCell>
        <mxCell id="95CmSrwEK4jBnhM7cNss-162" style="edgeStyle=orthogonalEdgeStyle;rounded=0;orthogonalLoop=1;jettySize=auto;html=1;strokeColor=#FF0000;" edge="1" parent="1">
          <mxGeometry relative="1" as="geometry">
            <mxPoint x="480" y="619.9999999999998" as="targetPoint" />
            <mxPoint x="120" y="1190" as="sourcePoint" />
          </mxGeometry>
        </mxCell>
        <mxCell id="95CmSrwEK4jBnhM7cNss-163" style="edgeStyle=orthogonalEdgeStyle;rounded=0;orthogonalLoop=1;jettySize=auto;html=1;strokeColor=#FF0000;" edge="1" parent="1">
          <mxGeometry relative="1" as="geometry">
            <mxPoint x="640" y="709.9999999999998" as="targetPoint" />
            <mxPoint x="120" y="1190" as="sourcePoint" />
          </mxGeometry>
        </mxCell>
        <mxCell id="95CmSrwEK4jBnhM7cNss-164" style="edgeStyle=orthogonalEdgeStyle;rounded=0;orthogonalLoop=1;jettySize=auto;html=1;strokeColor=#FF0000;" edge="1" parent="1">
          <mxGeometry relative="1" as="geometry">
            <mxPoint x="800" y="809.9999999999998" as="targetPoint" />
            <mxPoint x="120" y="1190" as="sourcePoint" />
          </mxGeometry>
        </mxCell>
        <mxCell id="95CmSrwEK4jBnhM7cNss-165" style="edgeStyle=orthogonalEdgeStyle;rounded=0;orthogonalLoop=1;jettySize=auto;html=1;strokeColor=#FF0000;" edge="1" parent="1">
          <mxGeometry relative="1" as="geometry">
            <mxPoint x="960" y="909.9999999999998" as="targetPoint" />
            <mxPoint x="120" y="1190" as="sourcePoint" />
          </mxGeometry>
        </mxCell>
        <mxCell id="95CmSrwEK4jBnhM7cNss-166" style="edgeStyle=orthogonalEdgeStyle;rounded=0;orthogonalLoop=1;jettySize=auto;html=1;strokeColor=#FF0000;" edge="1" parent="1">
          <mxGeometry relative="1" as="geometry">
            <mxPoint x="1120" y="1009.9999999999998" as="targetPoint" />
            <mxPoint x="120" y="1190" as="sourcePoint" />
          </mxGeometry>
        </mxCell>
        <mxCell id="95CmSrwEK4jBnhM7cNss-168" style="edgeStyle=orthogonalEdgeStyle;rounded=0;orthogonalLoop=1;jettySize=auto;html=1;strokeColor=#FF0000;" edge="1" parent="1">
          <mxGeometry relative="1" as="geometry">
            <mxPoint x="1280" y="1110" as="targetPoint" />
            <mxPoint x="120" y="1190" as="sourcePoint" />
          </mxGeometry>
        </mxCell>
        <mxCell id="95CmSrwEK4jBnhM7cNss-169" style="edgeStyle=orthogonalEdgeStyle;rounded=0;orthogonalLoop=1;jettySize=auto;html=1;strokeColor=#FF0000;" edge="1" parent="1">
          <mxGeometry relative="1" as="geometry">
            <mxPoint x="1444.187534877232" y="1210" as="targetPoint" />
            <mxPoint x="120" y="1190" as="sourcePoint" />
            <Array as="points">
              <mxPoint x="320" y="1190" />
              <mxPoint x="320" y="1211" />
              <mxPoint x="1444" y="1211" />
            </Array>
          </mxGeometry>
        </mxCell>
        <mxCell id="95CmSrwEK4jBnhM7cNss-170" style="edgeStyle=orthogonalEdgeStyle;rounded=0;orthogonalLoop=1;jettySize=auto;html=1;strokeColor=#FF0000;" edge="1" parent="1">
          <mxGeometry relative="1" as="geometry">
            <mxPoint x="1608.3750697544642" y="1310" as="targetPoint" />
            <mxPoint x="120" y="1190" as="sourcePoint" />
            <Array as="points">
              <mxPoint x="320" y="1190" />
              <mxPoint x="320" y="1270" />
              <mxPoint x="1608" y="1270" />
            </Array>
          </mxGeometry>
        </mxCell>
        <mxCell id="95CmSrwEK4jBnhM7cNss-171" style="edgeStyle=orthogonalEdgeStyle;rounded=0;orthogonalLoop=1;jettySize=auto;html=1;strokeColor=#FF0000;" edge="1" parent="1">
          <mxGeometry relative="1" as="geometry">
            <mxPoint x="1760" y="1410" as="targetPoint" />
            <mxPoint x="120" y="1190" as="sourcePoint" />
            <Array as="points">
              <mxPoint x="320" y="1190" />
              <mxPoint x="320" y="1370" />
              <mxPoint x="1761" y="1370" />
              <mxPoint x="1761" y="1410" />
            </Array>
          </mxGeometry>
        </mxCell>
        <mxCell id="95CmSrwEK4jBnhM7cNss-172" style="edgeStyle=orthogonalEdgeStyle;rounded=0;orthogonalLoop=1;jettySize=auto;html=1;strokeColor=#FF0000;" edge="1" parent="1">
          <mxGeometry relative="1" as="geometry">
            <mxPoint x="1920" y="1510" as="targetPoint" />
            <mxPoint x="120" y="1190" as="sourcePoint" />
            <Array as="points">
              <mxPoint x="320" y="1190" />
              <mxPoint x="320" y="1480" />
              <mxPoint x="1921" y="1480" />
              <mxPoint x="1921" y="1510" />
            </Array>
          </mxGeometry>
        </mxCell>
        <mxCell id="95CmSrwEK4jBnhM7cNss-173" style="edgeStyle=orthogonalEdgeStyle;rounded=0;orthogonalLoop=1;jettySize=auto;html=1;strokeColor=#FF0000;" edge="1" parent="1">
          <mxGeometry relative="1" as="geometry">
            <mxPoint x="2080" y="1610" as="targetPoint" />
            <mxPoint x="120" y="1190" as="sourcePoint" />
            <Array as="points">
              <mxPoint x="320" y="1190" />
              <mxPoint x="320" y="1610" />
            </Array>
          </mxGeometry>
        </mxCell>
        <mxCell id="95CmSrwEK4jBnhM7cNss-174" style="edgeStyle=orthogonalEdgeStyle;rounded=0;orthogonalLoop=1;jettySize=auto;html=1;strokeColor=#FF0000;" edge="1" parent="1">
          <mxGeometry relative="1" as="geometry">
            <mxPoint x="2240" y="1710" as="targetPoint" />
            <mxPoint x="120" y="1190" as="sourcePoint" />
            <Array as="points">
              <mxPoint x="320" y="1190" />
              <mxPoint x="320" y="1710" />
              <mxPoint x="2230" y="1710" />
            </Array>
          </mxGeometry>
        </mxCell>
        <mxCell id="95CmSrwEK4jBnhM7cNss-175" style="edgeStyle=orthogonalEdgeStyle;rounded=0;orthogonalLoop=1;jettySize=auto;html=1;strokeColor=#FF0000;" edge="1" parent="1">
          <mxGeometry relative="1" as="geometry">
            <mxPoint x="2400" y="1810" as="targetPoint" />
            <mxPoint x="120" y="1190" as="sourcePoint" />
            <Array as="points">
              <mxPoint x="320" y="1190" />
              <mxPoint x="320" y="1810" />
            </Array>
          </mxGeometry>
        </mxCell>
        <mxCell id="95CmSrwEK4jBnhM7cNss-176" style="edgeStyle=orthogonalEdgeStyle;rounded=0;orthogonalLoop=1;jettySize=auto;html=1;strokeColor=#FF0000;" edge="1" parent="1">
          <mxGeometry relative="1" as="geometry">
            <mxPoint x="2550" y="1910" as="targetPoint" />
            <mxPoint x="120" y="1190" as="sourcePoint" />
            <Array as="points">
              <mxPoint x="320" y="1190" />
              <mxPoint x="320" y="1910" />
            </Array>
          </mxGeometry>
        </mxCell>
        <mxCell id="95CmSrwEK4jBnhM7cNss-177" style="edgeStyle=orthogonalEdgeStyle;rounded=0;orthogonalLoop=1;jettySize=auto;html=1;strokeColor=#FF0000;" edge="1" parent="1">
          <mxGeometry relative="1" as="geometry">
            <mxPoint x="2720" y="2010" as="targetPoint" />
            <mxPoint x="120" y="1190" as="sourcePoint" />
            <Array as="points">
              <mxPoint x="320" y="1190" />
              <mxPoint x="320" y="2010" />
            </Array>
          </mxGeometry>
        </mxCell>
      </root>
    </mxGraphModel>
  </diagram>
</mxfile>
